<svg width="62" height="62" viewBox="0 0 62 62" fill="none" xmlns="http://www.w3.org/2000/svg">
<path d="M62 31C62 48.1208 48.1208 62 31 62C13.8792 62 0 48.1208 0 31C0 13.8792 13.8792 0 31 0C48.1208 0 62 13.8792 62 31ZM7.77737 31C7.77737 43.8255 18.1745 54.2226 31 54.2226C43.8255 54.2226 54.2226 43.8255 54.2226 31C54.2226 18.1745 43.8255 7.77737 31 7.77737C18.1745 7.77737 7.77737 18.1745 7.77737 31Z" fill="white" fill-opacity="0.12"/>
<path d="M31 43C31.68 43 32.2504 42.7696 32.7112 42.3088C33.172 41.848 33.4016 41.2784 33.4 40.6C33.3984 39.9216 33.168 39.352 32.7088 38.8912C32.2496 38.4304 31.68 38.2 31 38.2C30.32 38.2 29.7504 38.4304 29.2912 38.8912C28.832 39.352 28.6016 39.9216 28.6 40.6C28.5984 41.2784 28.8288 41.8488 29.2912 42.3112C29.7536 42.7736 30.3232 43.0032 31 43ZM31 33.4C31.68 33.4 32.2504 33.1696 32.7112 32.7088C33.172 32.248 33.4016 31.6784 33.4 31V21.4C33.4 20.72 33.1696 20.1504 32.7088 19.6912C32.248 19.232 31.6784 19.0016 31 19C30.3216 18.9984 29.752 19.2288 29.2912 19.6912C28.8304 20.1536 28.6 20.7232 28.6 21.4V31C28.6 31.68 28.8304 32.2504 29.2912 32.7112C29.752 33.172 30.3216 33.4016 31 33.4ZM31 55C27.68 55 24.56 54.3696 21.64 53.1088C18.72 51.848 16.18 50.1384 14.02 47.98C11.86 45.8216 10.1504 43.2816 8.8912 40.36C7.632 37.4384 7.0016 34.3184 7 31C6.9984 27.6816 7.6288 24.5616 8.8912 21.64C10.1536 18.7184 11.8632 16.1784 14.02 14.02C16.1768 11.8616 18.7168 10.152 21.64 8.8912C24.5632 7.6304 27.6832 7 31 7C34.3168 7 37.4368 7.6304 40.36 8.8912C43.2832 10.152 45.8232 11.8616 47.98 14.02C50.1368 16.1784 51.8472 18.7184 53.1112 21.64C54.3752 24.5616 55.0048 27.6816 55 31C54.9952 34.3184 54.3648 37.4384 53.1088 40.36C51.8528 43.2816 50.1432 45.8216 47.98 47.98C45.8168 50.1384 43.2768 51.8488 40.36 53.1112C37.4432 54.3736 34.3232 55.0032 31 55Z" fill="white"/>
</svg>
