<svg width="31" height="31" viewBox="0 0 31 31" fill="none" xmlns="http://www.w3.org/2000/svg">
<path d="M20.6667 1.5513C19.375 1.5513 18.3417 2.58464 18.3417 3.8763C18.3417 5.16797 19.375 6.2013 20.6667 6.2013C21.9583 6.2013 22.9917 5.16797 22.9917 3.8763C22.9917 2.58464 21.9583 1.5513 20.6667 1.5513ZM16.0167 5.29714C15.4096 5.29714 14.8542 5.54255 14.4667 5.94297L9.6875 10.7092C9.28708 11.1096 9.04167 11.6263 9.04167 12.2721C9.04167 13.0859 9.46792 13.7705 10.1396 14.1709L14.4667 16.793V23.2513H16.7917V14.8555L13.8854 12.7242L16.8821 9.6888L19.1167 12.918H24.5417V10.593H20.4083L17.9025 6.36922C17.5279 5.72339 16.7917 5.29714 16.0167 5.29714ZM12.9167 3.8763H3.875C3.16458 3.8763 2.58333 3.29505 2.58333 2.58464C2.58333 1.87422 3.16458 1.29297 3.875 1.29297H16.5204C16.2492 1.73214 16.0296 2.21005 15.9133 2.72672C14.8025 2.75255 13.7562 3.16589 12.9167 3.8763ZM6.45833 15.5013C2.89333 15.5013 0 18.3946 0 21.9596C0 25.5246 2.89333 28.418 6.45833 28.418C10.0233 28.418 12.9167 25.5246 12.9167 21.9596C12.9167 18.3946 10.0233 15.5013 6.45833 15.5013ZM6.45833 26.4805C3.96542 26.4805 1.9375 24.4526 1.9375 21.9596C1.9375 19.4667 3.96542 17.4388 6.45833 17.4388C8.95125 17.4388 10.9792 19.4667 10.9792 21.9596C10.9792 24.4526 8.95125 26.4805 6.45833 26.4805ZM24.5417 15.5013C20.9767 15.5013 18.0833 18.3946 18.0833 21.9596C18.0833 25.5246 20.9767 28.418 24.5417 28.418C28.1067 28.418 31 25.5246 31 21.9596C31 18.3946 28.1067 15.5013 24.5417 15.5013ZM24.5417 26.4805C22.0487 26.4805 20.0208 24.4526 20.0208 21.9596C20.0208 19.4667 22.0487 17.4388 24.5417 17.4388C27.0346 17.4388 29.0625 19.4667 29.0625 21.9596C29.0625 24.4526 27.0346 26.4805 24.5417 26.4805ZM6.87167 14.2096H1.29167C0.578667 14.2096 0 13.6284 0 12.918C0 12.2076 0.578667 11.6263 1.29167 11.6263H6.52292C6.49708 11.833 6.45833 12.0526 6.45833 12.2721C6.45833 12.9567 6.61333 13.6155 6.87167 14.2096ZM7.75 9.04297H2.58333C1.87292 9.04297 1.29167 8.46172 1.29167 7.7513C1.29167 7.04089 1.87292 6.45964 2.58333 6.45964H10.2946L7.86625 8.87505C7.81458 8.92672 7.75 8.9913 7.75 9.04297Z" fill="white"/>
</svg>
