<svg width="10" height="10" viewBox="0 0 10 10" fill="none" xmlns="http://www.w3.org/2000/svg">
<path d="M6.67608 3.89559H8.75608L7.43066 2.56934C7.00395 2.14262 6.47242 1.83575 5.8895 1.67959C5.30659 1.52343 4.69283 1.52347 4.10994 1.67972C3.52705 1.83597 2.99557 2.14291 2.56891 2.5697C2.14226 2.99648 1.83548 3.52806 1.67941 4.111M1.24358 8.18558V6.10559M1.24358 6.10559H3.32358M1.24358 6.10559L2.56858 7.43183C2.9953 7.85856 3.52683 8.16542 4.10974 8.32158C4.69266 8.47774 5.30641 8.4777 5.8893 8.32145C6.47219 8.1652 7.00368 7.85826 7.43033 7.43147C7.85698 7.00469 8.16376 6.47311 8.31983 5.89017M8.75608 1.81559V3.89475" stroke="white" stroke-linecap="round" stroke-linejoin="round"/>
</svg>
