<svg width="20" height="20" viewBox="0 0 20 20" fill="none" xmlns="http://www.w3.org/2000/svg">
<path fill-rule="evenodd" clip-rule="evenodd" d="M7.22032 3.22C7.36083 3.07931 7.55147 3.00018 7.75032 3H16.7503C17.0458 3 17.3384 3.0582 17.6114 3.17127C17.8843 3.28434 18.1324 3.45008 18.3413 3.65901C18.5502 3.86794 18.716 4.11598 18.829 4.38896C18.9421 4.66194 19.0003 4.95453 19.0003 5.25V14.75C19.0003 15.0455 18.9421 15.3381 18.829 15.611C18.716 15.884 18.5502 16.1321 18.3413 16.341C18.1324 16.5499 17.8843 16.7157 17.6114 16.8287C17.3384 16.9418 17.0458 17 16.7503 17H7.75032C7.55147 16.9998 7.36083 16.9207 7.22032 16.78L0.970317 10.53C0.829866 10.3894 0.750977 10.1988 0.750977 10C0.750977 9.80125 0.829866 9.61063 0.970317 9.47L7.22032 3.22ZM10.2803 7.22C10.2117 7.14631 10.1289 7.08721 10.0369 7.04622C9.94486 7.00523 9.84554 6.98319 9.74484 6.98141C9.64414 6.97963 9.54411 6.99816 9.45072 7.03588C9.35733 7.0736 9.2725 7.12974 9.20128 7.20096C9.13006 7.27218 9.07391 7.35701 9.03619 7.4504C8.99847 7.54379 8.97995 7.64382 8.98172 7.74452C8.9835 7.84523 9.00554 7.94454 9.04654 8.03654C9.08753 8.12854 9.14663 8.21134 9.22032 8.28L10.9403 10L9.22032 11.72C9.14663 11.7887 9.08753 11.8715 9.04654 11.9635C9.00554 12.0555 8.9835 12.1548 8.98172 12.2555C8.97995 12.3562 8.99847 12.4562 9.03619 12.5496C9.07391 12.643 9.13006 12.7278 9.20128 12.799C9.2725 12.8703 9.35733 12.9264 9.45072 12.9641C9.54411 13.0018 9.64414 13.0204 9.74484 13.0186C9.84554 13.0168 9.94486 12.9948 10.0369 12.9538C10.1289 12.9128 10.2117 12.8537 10.2803 12.78L12.0003 11.06L13.7203 12.78C13.789 12.8537 13.8718 12.9128 13.9638 12.9538C14.0558 12.9948 14.1551 13.0168 14.2558 13.0186C14.3565 13.0204 14.4565 13.0018 14.5499 12.9641C14.6433 12.9264 14.7281 12.8703 14.7994 12.799C14.8706 12.7278 14.9267 12.643 14.9644 12.5496C15.0022 12.4562 15.0207 12.3562 15.0189 12.2555C15.0171 12.1548 14.9951 12.0555 14.9541 11.9635C14.9131 11.8715 14.854 11.7887 14.7803 11.72L13.0603 10L14.7803 8.28C14.9128 8.13782 14.9849 7.94978 14.9815 7.75548C14.9781 7.56118 14.8994 7.37579 14.7619 7.23838C14.6245 7.10097 14.4391 7.02225 14.2448 7.01883C14.0505 7.0154 13.8625 7.08752 13.7203 7.22L12.0003 8.94L10.2803 7.22Z" fill="white"/>
</svg>
