<svg width="31" height="31" viewBox="0 0 31 31" fill="none" xmlns="http://www.w3.org/2000/svg">
<rect x="0.369048" y="0.369048" width="30.2619" height="30.2619" rx="15.131" stroke="#797979" stroke-width="0.738095"/>
<g clip-path="url(#clip0_528_6587)">
<path fill-rule="evenodd" clip-rule="evenodd" d="M10.6875 12.0625C10.6875 11.6978 10.8324 11.3481 11.0902 11.0902C11.3481 10.8324 11.6978 10.6875 12.0625 10.6875H12.6913C13.0855 10.6875 13.4293 10.9561 13.525 11.3383L14.0315 13.3655C14.0725 13.5296 14.0643 13.7022 14.0077 13.8616C13.9511 14.021 13.8487 14.1601 13.7134 14.2616L13.1208 14.7062C13.0589 14.7525 13.0456 14.8203 13.063 14.8675C13.3217 15.571 13.7302 16.2098 14.2602 16.7398C14.7902 17.2698 15.429 17.6783 16.1325 17.937C16.1797 17.9544 16.2471 17.9411 16.2938 17.8792L16.7384 17.2866C16.8399 17.1513 16.979 17.0489 17.1384 16.9923C17.2978 16.9357 17.4704 16.9275 17.6345 16.9685L19.6617 17.475C20.0439 17.5708 20.3125 17.9145 20.3125 18.3091V18.9375C20.3125 19.3022 20.1676 19.6519 19.9098 19.9098C19.6519 20.1676 19.3022 20.3125 18.9375 20.3125H17.9063C13.9197 20.3125 10.6875 17.0803 10.6875 13.0938V12.0625Z" fill="white"/>
</g>
<defs>
<clipPath id="clip0_528_6587">
<rect width="11" height="11" fill="white" transform="translate(10 10)"/>
</clipPath>
</defs>
</svg>
