<svg width="62" height="62" viewBox="0 0 62 62" fill="none" xmlns="http://www.w3.org/2000/svg">
<path d="M62 31C62 48.1208 48.1208 62 31 62C13.8792 62 0 48.1208 0 31C0 13.8792 13.8792 0 31 0C48.1208 0 62 13.8792 62 31ZM7.77737 31C7.77737 43.8255 18.1745 54.2226 31 54.2226C43.8255 54.2226 54.2226 43.8255 54.2226 31C54.2226 18.1745 43.8255 7.77737 31 7.77737C18.1745 7.77737 7.77737 18.1745 7.77737 31Z" fill="white" fill-opacity="0.12"/>
<path fill-rule="evenodd" clip-rule="evenodd" d="M31 8C18.2969 8 8 18.2969 8 31C8 43.7031 18.2969 54 31 54C43.7031 54 54 43.7031 54 31C54 18.2969 43.7031 8 31 8ZM26.9426 24.4421C26.7806 24.2682 26.5853 24.1288 26.3682 24.0321C26.1512 23.9354 25.9169 23.8834 25.6794 23.8792C25.4418 23.875 25.2059 23.9187 24.9856 24.0077C24.7653 24.0967 24.5651 24.2291 24.3971 24.3971C24.2291 24.5651 24.0967 24.7653 24.0077 24.9856C23.9187 25.2059 23.875 25.4418 23.8792 25.6794C23.8834 25.9169 23.9354 26.1512 24.0321 26.3682C24.1288 26.5853 24.2682 26.7806 24.4421 26.9426L28.4995 31L24.4421 35.0574C24.2682 35.2194 24.1288 35.4147 24.0321 35.6318C23.9354 35.8488 23.8834 36.0831 23.8792 36.3206C23.875 36.5582 23.9187 36.7941 24.0077 37.0144C24.0967 37.2347 24.2291 37.4349 24.3971 37.6029C24.5651 37.7709 24.7653 37.9033 24.9856 37.9923C25.2059 38.0813 25.4418 38.125 25.6794 38.1208C25.9169 38.1166 26.1512 38.0646 26.3682 37.9679C26.5853 37.8712 26.7806 37.7318 26.9426 37.5579L31 33.5005L35.0574 37.5579C35.2194 37.7318 35.4147 37.8712 35.6318 37.9679C35.8488 38.0646 36.0831 38.1166 36.3206 38.1208C36.5582 38.125 36.7941 38.0813 37.0144 37.9923C37.2347 37.9033 37.4349 37.7709 37.6029 37.6029C37.7709 37.4349 37.9033 37.2347 37.9923 37.0144C38.0813 36.7941 38.125 36.5582 38.1208 36.3206C38.1166 36.0831 38.0646 35.8488 37.9679 35.6318C37.8712 35.4147 37.7318 35.2194 37.5579 35.0574L33.5005 31L37.5579 26.9426C37.7318 26.7806 37.8712 26.5853 37.9679 26.3682C38.0646 26.1512 38.1166 25.9169 38.1208 25.6794C38.125 25.4418 38.0813 25.2059 37.9923 24.9856C37.9033 24.7653 37.7709 24.5651 37.6029 24.3971C37.4349 24.2291 37.2347 24.0967 37.0144 24.0077C36.7941 23.9187 36.5582 23.875 36.3206 23.8792C36.0831 23.8834 35.8488 23.9354 35.6318 24.0321C35.4147 24.1288 35.2194 24.2682 35.0574 24.4421L31 28.4995L26.9426 24.4421Z" fill="white"/>
</svg>
