<svg width="30" height="30" viewBox="0 0 30 30" fill="none" xmlns="http://www.w3.org/2000/svg">
<path d="M2.8125 10.3125H27.1875M2.8125 11.25H27.1875M6.5625 17.8125H14.0625M6.5625 20.625H10.3125M5.625 24.375H24.375C25.1209 24.375 25.8363 24.0787 26.3637 23.5512C26.8912 23.0238 27.1875 22.3084 27.1875 21.5625V8.4375C27.1875 7.69158 26.8912 6.97621 26.3637 6.44876C25.8363 5.92132 25.1209 5.625 24.375 5.625H5.625C4.87908 5.625 4.16371 5.92132 3.63626 6.44876C3.10882 6.97621 2.8125 7.69158 2.8125 8.4375V21.5625C2.8125 22.3084 3.10882 23.0238 3.63626 23.5512C4.16371 24.0787 4.87908 24.375 5.625 24.375Z" stroke="white" stroke-width="1.5" stroke-linecap="round" stroke-linejoin="round"/>
</svg>
