<svg width="62" height="62" viewBox="0 0 62 62" fill="none" xmlns="http://www.w3.org/2000/svg">
<path d="M62 31C62 48.1208 48.1208 62 31 62C13.8792 62 0 48.1208 0 31C0 13.8792 13.8792 0 31 0C48.1208 0 62 13.8792 62 31ZM7.77737 31C7.77737 43.8255 18.1745 54.2226 31 54.2226C43.8255 54.2226 54.2226 43.8255 54.2226 31C54.2226 18.1745 43.8255 7.77737 31 7.77737C18.1745 7.77737 7.77737 18.1745 7.77737 31Z" fill="white" fill-opacity="0.12"/>
<path fill-rule="evenodd" clip-rule="evenodd" d="M7 31C7 17.7446 17.7446 7 31 7C44.2554 7 55 17.7446 55 31C55 44.2554 44.2554 55 31 55C17.7446 55 7 44.2554 7 31ZM39.8862 26.5348C40.0338 26.338 40.1407 26.1136 40.2005 25.875C40.2602 25.6363 40.2717 25.388 40.2341 25.1449C40.1966 24.9017 40.1108 24.6685 39.9818 24.4589C39.8528 24.2494 39.6833 24.0678 39.4831 23.9247C39.2829 23.7816 39.0562 23.68 38.8161 23.6258C38.5761 23.5716 38.3277 23.5659 38.0855 23.6091C37.8433 23.6523 37.6121 23.7435 37.4056 23.8773C37.1991 24.0111 37.0215 24.1849 36.8831 24.3883L28.9175 35.5391L24.92 31.5415C24.57 31.2154 24.1071 31.0379 23.6289 31.0463C23.1506 31.0548 22.6943 31.2485 22.356 31.5868C22.0178 31.925 21.824 32.3814 21.8156 32.8596C21.8071 33.3379 21.9847 33.8008 22.3108 34.1508L27.8492 39.6892C28.0387 39.8786 28.2672 40.0245 28.5187 40.1167C28.7703 40.2089 29.0389 40.2452 29.3059 40.2232C29.5729 40.2012 29.8319 40.1213 30.0649 39.9892C30.298 39.857 30.4995 39.6757 30.6554 39.4578L39.8862 26.5348Z" fill="white"/>
</svg>
