<svg width="24" height="24" viewBox="0 0 24 24" fill="none" xmlns="http://www.w3.org/2000/svg">
<g clip-path="url(#clip0_448_6797)">
<path fill-rule="evenodd" clip-rule="evenodd" d="M8.46466 10.2932C8.65219 10.1057 8.9065 10.0004 9.17166 10.0004C9.43683 10.0004 9.69113 10.1057 9.87866 10.2932L11.9997 12.4142L14.1207 10.2932C14.3082 10.1056 14.5625 10.0001 14.8278 10C15.0931 9.99991 15.3475 10.1052 15.5352 10.2927C15.7228 10.4802 15.8283 10.7346 15.8284 10.9998C15.8285 11.2651 15.7232 11.5196 15.5357 11.7072L12.7067 14.5362C12.5191 14.7237 12.2648 14.829 11.9997 14.829C11.7345 14.829 11.4802 14.7237 11.2927 14.5362L8.46466 11.7072C8.27719 11.5197 8.17188 11.2654 8.17188 11.0002C8.17188 10.735 8.27719 10.4807 8.46466 10.2932Z" fill="#FAFAFA"/>
</g>
<defs>
<clipPath id="clip0_448_6797">
<rect width="24" height="24" fill="white"/>
</clipPath>
</defs>
</svg>
