<svg width="18" height="18" viewBox="0 0 18 18" fill="none" xmlns="http://www.w3.org/2000/svg">
<g opacity="0.5">
<path fill-rule="evenodd" clip-rule="evenodd" d="M7.30359 12.6941C7.10948 12.4981 7.00043 12.2324 7.00043 11.9554C7.00043 11.6783 7.10948 11.4126 7.30359 11.2166L9.4997 9.00048L7.30359 6.78432C7.1093 6.5884 7.0001 6.32262 7 6.04545C6.9999 5.76828 7.10892 5.50242 7.30307 5.30636C7.49722 5.1103 7.76059 5.0001 8.03526 5C8.30992 4.9999 8.57337 5.10991 8.76766 5.30584L11.6968 8.26176C11.891 8.4577 12 8.72342 12 9.00048C12 9.27754 11.891 9.54326 11.6968 9.7392L8.76766 12.6941C8.57349 12.89 8.31018 13 8.03562 13C7.76107 13 7.49775 12.89 7.30359 12.6941Z" fill="#FAFAFA"/>
</g>
</svg>
