<svg width="14" height="14" viewBox="0 0 14 14" fill="none" xmlns="http://www.w3.org/2000/svg">
<path d="M9.1875 10.0625V12.0313C9.1875 12.3935 8.8935 12.6875 8.53125 12.6875H2.84375C2.6697 12.6875 2.50278 12.6184 2.37971 12.4953C2.25664 12.3722 2.1875 12.2053 2.1875 12.0313V4.59375C2.1875 4.2315 2.4815 3.9375 2.84375 3.9375H3.9375C4.23067 3.9373 4.52334 3.9615 4.8125 4.00983M9.1875 10.0625H11.1562C11.5185 10.0625 11.8125 9.7685 11.8125 9.40625V6.5625C11.8125 3.96083 9.92075 1.80192 7.4375 1.38483C7.14834 1.3365 6.85567 1.3123 6.5625 1.3125H5.46875C5.1065 1.3125 4.8125 1.6065 4.8125 1.96875V4.00983M9.1875 10.0625H5.46875C5.2947 10.0625 5.12778 9.99336 5.00471 9.87029C4.88164 9.74722 4.8125 9.5803 4.8125 9.40625V4.00983M11.8125 7.875V6.78125C11.8125 6.25911 11.6051 5.75835 11.2359 5.38913C10.8667 5.01992 10.3659 4.8125 9.84375 4.8125H8.96875C8.7947 4.8125 8.62778 4.74336 8.50471 4.62029C8.38164 4.49722 8.3125 4.3303 8.3125 4.15625V3.28125C8.3125 3.02271 8.26158 2.7667 8.16264 2.52784C8.0637 2.28898 7.91868 2.07195 7.73587 1.88913C7.55305 1.70632 7.33602 1.5613 7.09716 1.46236C6.8583 1.36342 6.60229 1.3125 6.34375 1.3125H5.6875" stroke="white" stroke-linecap="round" stroke-linejoin="round"/>
</svg>
