<svg width="9" height="9" viewBox="0 0 9 9" fill="none" xmlns="http://www.w3.org/2000/svg">
<path fill-rule="evenodd" clip-rule="evenodd" d="M4.17406 8.15169L4.17536 8.15212C4.26019 8.18916 4.30757 8.18054 4.30757 8.18054C4.30757 8.18054 4.35494 8.18916 4.44021 8.15212L4.44107 8.15169L4.44365 8.1504L4.45141 8.14695C4.49229 8.12796 4.53264 8.10786 4.57242 8.08666C4.65252 8.04532 4.76449 7.9833 4.89843 7.90019C5.16544 7.73481 5.52073 7.48417 5.87774 7.14008C6.59091 6.45275 7.32217 5.37826 7.32217 3.87397C7.32217 3.47809 7.24419 3.08608 7.09269 2.72034C6.9412 2.35459 6.71914 2.02226 6.43921 1.74233C6.15928 1.4624 5.82695 1.24035 5.4612 1.08885C5.09546 0.93735 4.70345 0.859375 4.30757 0.859375C3.91168 0.859375 3.51968 0.93735 3.15393 1.08885C2.78818 1.24035 2.45586 1.4624 2.17592 1.74233C1.89599 2.02226 1.67394 2.35459 1.52244 2.72034C1.37094 3.08608 1.29297 3.47809 1.29297 3.87397C1.29297 5.37783 2.02422 6.45275 2.73782 7.14008C3.03659 7.42703 3.36469 7.6818 3.71671 7.90019C3.85305 7.98485 3.99331 8.06303 4.13703 8.13446L4.16373 8.14695L4.17148 8.1504L4.17406 8.15169ZM4.30757 4.84295C4.56456 4.84295 4.81102 4.74086 4.99274 4.55914C5.17446 4.37743 5.27655 4.13096 5.27655 3.87397C5.27655 3.61698 5.17446 3.37052 4.99274 3.1888C4.81102 3.00708 4.56456 2.905 4.30757 2.905C4.05058 2.905 3.80412 3.00708 3.6224 3.1888C3.44068 3.37052 3.33859 3.61698 3.33859 3.87397C3.33859 4.13096 3.44068 4.37743 3.6224 4.55914C3.80412 4.74086 4.05058 4.84295 4.30757 4.84295Z" fill="black"/>
</svg>
