<svg width="22" height="22" viewBox="0 0 22 22" fill="none" xmlns="http://www.w3.org/2000/svg">
<path d="M13.5117 8.25048L13.1945 16.5005M8.8055 16.5005L8.48833 8.25048M17.6257 5.30798C17.9392 5.35564 18.2508 5.40606 18.5625 5.46014M17.6257 5.30798L16.6467 18.0341C16.6067 18.5522 16.3726 19.0361 15.9913 19.3891C15.6099 19.7421 15.1093 19.9381 14.5897 19.938H7.41033C6.89067 19.9381 6.3901 19.7421 6.00873 19.3891C5.62736 19.0361 5.39329 18.5522 5.35333 18.0341L4.37433 5.30798M17.6257 5.30798C16.5677 5.14803 15.5043 5.02665 14.4375 4.94406M4.37433 5.30798C4.06083 5.35473 3.74917 5.40514 3.4375 5.45923M4.37433 5.30798C5.43229 5.14804 6.49572 5.02665 7.5625 4.94406M14.4375 4.94406V4.10439C14.4375 3.02273 13.6033 2.12073 12.5217 2.08681C11.5075 2.0544 10.4925 2.0544 9.47833 2.08681C8.39667 2.12073 7.5625 3.02364 7.5625 4.10439V4.94406M14.4375 4.94406C12.1492 4.76722 9.85076 4.76722 7.5625 4.94406" stroke="white" stroke-width="1.5" stroke-linecap="round" stroke-linejoin="round"/>
</svg>
