<svg width="21" height="21" viewBox="0 0 21 21" fill="none" xmlns="http://www.w3.org/2000/svg">
<path d="M7 16.625C7.9665 16.625 8.75 15.8415 8.75 14.875C8.75 13.9085 7.9665 13.125 7 13.125C6.0335 13.125 5.25 13.9085 5.25 14.875C5.25 15.8415 6.0335 16.625 7 16.625Z" stroke="white" stroke-miterlimit="1.5" stroke-linecap="round" stroke-linejoin="round"/>
<path d="M15.75 16.625C16.7165 16.625 17.5 15.8415 17.5 14.875C17.5 13.9085 16.7165 13.125 15.75 13.125C14.7835 13.125 14 13.9085 14 14.875C14 15.8415 14.7835 16.625 15.75 16.625Z" stroke="white" stroke-miterlimit="1.5" stroke-linecap="round" stroke-linejoin="round"/>
<path d="M8.79375 14.875H13.125V5.775C13.125 5.48505 12.89 5.25 12.6 5.25H0.875" stroke="white" stroke-linecap="round"/>
<path d="M4.94375 14.875H3.15C2.86005 14.875 2.625 14.64 2.625 14.35V10.0625" stroke="white" stroke-linecap="round"/>
<path d="M1.75 7.875H5.25" stroke="white" stroke-linecap="round" stroke-linejoin="round"/>
<path d="M13.125 7.875H18.0338C18.2413 7.875 18.4293 7.99719 18.5136 8.18678L20.0798 11.7107C20.1096 11.7779 20.125 11.8505 20.125 11.9239V14.35C20.125 14.64 19.89 14.875 19.6 14.875H17.9375" stroke="white" stroke-linecap="round"/>
<path d="M13.125 14.875H14" stroke="white" stroke-linecap="round"/>
</svg>
