<svg width="362" height="59" viewBox="0 0 362 59" fill="none" xmlns="http://www.w3.org/2000/svg">
<mask id="path-1-inside-1_490_6613" fill="white">
<path d="M42.6019 12.2781C43.3491 13.3566 44.5777 14 45.8898 14H351C357.075 14 362 18.925 362 25V48C362 54.0751 357.075 59 351 59H11C4.92487 59 0 54.0751 0 48V25C0.000189314 18.925 4.92498 14 11 14H18.1102C19.4223 14 20.6509 13.3566 21.3981 12.2781L28.7121 1.72196C30.3028 -0.573939 33.6972 -0.57394 35.2879 1.72196L42.6019 12.2781Z"/>
</mask>
<path d="M42.6019 12.2781C43.3491 13.3566 44.5777 14 45.8898 14H351C357.075 14 362 18.925 362 25V48C362 54.0751 357.075 59 351 59H11C4.92487 59 0 54.0751 0 48V25C0.000189314 18.925 4.92498 14 11 14H18.1102C19.4223 14 20.6509 13.3566 21.3981 12.2781L28.7121 1.72196C30.3028 -0.573939 33.6972 -0.57394 35.2879 1.72196L42.6019 12.2781Z" fill="#FACC15" fill-opacity="0.15"/>
<path d="M351 14V13V13V14ZM362 25H363V25L362 25ZM351 59V60V59ZM11 59V60V60V59ZM0 25L-1 25V25H0ZM11 14V13V14ZM21.3981 12.2781L22.2201 12.8476L21.3981 12.2781ZM42.6019 12.2781L43.4238 11.7086L42.6019 12.2781ZM45.8898 14V15H351V14V13H45.8898V14ZM351 14V15C356.523 15 361 19.4773 361 25L362 25L363 25C363 18.3728 357.627 13 351 13V14ZM362 25H361V48H362H363V25H362ZM362 48H361C361 53.5228 356.523 58 351 58V59V60C357.627 60 363 54.6274 363 48H362ZM351 59V58H11V59V60H351V59ZM11 59V58C5.47715 58 1 53.5228 1 48H0H-1C-1 54.6274 4.37258 60 11 60V59ZM0 48H1V25H0H-1V48H0ZM0 25L1 25C1.00017 19.4773 5.4773 15 11 15V14V13C4.37267 13 -0.999793 18.3728 -1 25L0 25ZM11 14V15H18.1102V14V13H11V14ZM21.3981 12.2781L22.2201 12.8476L29.5341 2.29148L28.7121 1.72196L27.8901 1.15244L20.5762 11.7086L21.3981 12.2781ZM35.2879 1.72196L34.4659 2.29148L41.7799 12.8476L42.6019 12.2781L43.4238 11.7086L36.1099 1.15244L35.2879 1.72196ZM18.1102 14V15C19.7503 15 21.2861 14.1957 22.2201 12.8476L21.3981 12.2781L20.5762 11.7086C20.0157 12.5174 19.0943 13 18.1102 13V14ZM28.7121 1.72196L29.5341 2.29148C30.7271 0.569554 33.2729 0.569554 34.4659 2.29148L35.2879 1.72196L36.1099 1.15244C34.1215 -1.71743 29.8785 -1.71743 27.8901 1.15244L28.7121 1.72196ZM45.8898 14V13C44.9057 13 43.9843 12.5174 43.4238 11.7086L42.6019 12.2781L41.7799 12.8476C42.7139 14.1957 44.2497 15 45.8898 15V14Z" fill="#FACC15" fill-opacity="0.21" mask="url(#path-1-inside-1_490_6613)"/>
</svg>
