<svg width="147" height="48" viewBox="0 0 147 48" fill="none" xmlns="http://www.w3.org/2000/svg">
<path d="M11.3757 36.816C4.46372 36.816 -0.000281185 31.92 -0.000281185 24.336C-0.000281185 16.704 4.55972 11.424 11.8557 11.424C14.8317 11.424 17.6637 12.624 19.0557 14.4V1.62125e-05H26.4477V36.192H19.4877L19.1037 33.12C17.8077 35.328 14.8317 36.816 11.3757 36.816ZM13.1517 30.048C16.6077 30.048 19.0077 27.648 19.0077 24.048C19.0077 20.448 16.6077 18.048 13.1517 18.048C9.64772 18.048 7.43972 20.496 7.43972 24.048C7.43972 27.6 9.64772 30.048 13.1517 30.048ZM30.7028 24.144C30.7028 16.56 36.2708 11.472 43.9508 11.472C51.5828 11.472 57.1508 16.56 57.1508 24.144C57.1508 31.728 51.5828 36.768 43.9508 36.768C36.2708 36.768 30.7028 31.728 30.7028 24.144ZM38.1428 24.096C38.1428 27.744 40.4948 30.144 43.9508 30.144C47.3588 30.144 49.7108 27.744 49.7108 24.096C49.7108 20.496 47.3588 18.096 43.9508 18.096C40.4948 18.096 38.1428 20.496 38.1428 24.096ZM70.898 36.192H63.506V18.336H58.946V12.192H63.506V4.75202H70.898V12.192H75.458V18.336H70.898V36.192ZM81.935 36.816C79.487 36.816 77.519 34.848 77.519 32.496C77.519 30.096 79.487 28.128 81.935 28.128C84.287 28.128 86.351 30.096 86.351 32.496C86.351 34.848 84.287 36.816 81.935 36.816ZM92.0926 47.712V12.192H99.0526L99.4366 15.12C100.781 12.912 103.805 11.424 107.213 11.424C113.885 11.424 118.541 16.08 118.541 23.808C118.541 31.392 114.413 36.864 107.261 36.864C103.949 36.864 100.877 35.616 99.4846 33.792V47.712H92.0926ZM99.5326 24.192C99.5326 27.792 101.933 30.192 105.389 30.192C108.893 30.192 111.101 27.744 111.101 24.192C111.101 20.64 108.893 18.192 105.389 18.192C101.933 18.192 99.5326 20.592 99.5326 24.192ZM133.932 36.816C126.684 36.816 121.5 31.536 121.5 24.144C121.5 16.656 126.54 11.424 133.788 11.424C141.324 11.424 146.028 16.368 146.028 24.192V26.064L128.604 26.16C129.036 29.328 130.812 30.816 134.076 30.816C136.86 30.816 138.828 29.808 139.356 28.08H146.124C145.26 33.408 140.508 36.816 133.932 36.816ZM133.836 17.424C130.908 17.424 129.276 18.72 128.7 21.6H138.684C138.684 19.056 136.812 17.424 133.836 17.424Z" fill="white"/>
</svg>
