<svg width="22" height="22" viewBox="0 0 22 22" fill="none" xmlns="http://www.w3.org/2000/svg">
<path d="M4.125 6.41673C4.125 6.41673 7.5625 1.14587 13.5208 3.20837C19.4792 5.27089 19.25 11.2292 19.25 11.2292" stroke="white" stroke-width="1.5" stroke-linecap="round" stroke-linejoin="round"/>
<path d="M17.875 15.5833C17.875 15.5833 15.125 20.625 8.9375 19.0208C2.75 17.4167 2.75 11 2.75 11" stroke="white" stroke-width="1.5" stroke-linecap="round" stroke-linejoin="round"/>
<path d="M19.25 3.66675V11.0001" stroke="white" stroke-width="1.5" stroke-linecap="round" stroke-linejoin="round"/>
<path d="M2.75 11V18.3333" stroke="white" stroke-width="1.5" stroke-linecap="round" stroke-linejoin="round"/>
<path d="M8.50108 11H10.3761C10.9621 11 11.5121 10.8 11.9066 10.4615C12.1334 10.2718 12.3074 10.0267 12.4116 9.75H8.50058C8.36797 9.75 8.24079 9.69732 8.14702 9.60355C8.05325 9.50979 8.00058 9.38261 8.00058 9.25C8.00058 9.11739 8.05325 8.99021 8.14702 8.89645C8.24079 8.80268 8.36797 8.75 8.50058 8.75H12.4116C12.3074 8.47326 12.1334 8.22817 11.9066 8.0385C11.5116 7.7005 10.9621 7.5 10.3761 7.5H8.50058C8.36797 7.5 8.24079 7.44732 8.14702 7.35355C8.05325 7.25979 8.00058 7.13261 8.00058 7C8.00058 6.86739 8.05325 6.74021 8.14702 6.64645C8.24079 6.55268 8.36797 6.5 8.50058 6.5H10.3756L10.4656 6.501L10.5006 6.5H14.0006C14.1332 6.5 14.2604 6.55268 14.3541 6.64645C14.4479 6.74021 14.5006 6.86739 14.5006 7C14.5006 7.13261 14.4479 7.25979 14.3541 7.35355C14.2604 7.44732 14.1332 7.5 14.0006 7.5H12.7881C13.1188 7.84821 13.3475 8.28063 13.4491 8.75H14.0006C14.1332 8.75 14.2604 8.80268 14.3541 8.89645C14.4479 8.99021 14.5006 9.11739 14.5006 9.25C14.5006 9.38261 14.4479 9.50979 14.3541 9.60355C14.2604 9.69732 14.1332 9.75 14.0006 9.75H13.4491C13.3311 10.3135 13.0166 10.827 12.5576 11.2205C11.9676 11.726 11.1821 12 10.3756 12H9.85658L12.9256 14.62C13.0228 14.7071 13.0821 14.8289 13.0908 14.9592C13.0995 15.0894 13.0569 15.218 12.972 15.3172C12.8872 15.4165 12.7669 15.4786 12.6368 15.4904C12.5068 15.5021 12.3773 15.4625 12.2761 15.38L8.17758 11.8815L8.17258 11.877C8.08425 11.8008 8.0255 11.6959 8.00659 11.5808C7.98767 11.4656 8.00979 11.3475 8.06908 11.247C8.11325 11.1717 8.17637 11.1093 8.25216 11.0659C8.32796 11.0226 8.41377 10.9999 8.50108 11Z" fill="white"/>
</svg>
