<svg width="137" height="41" viewBox="0 0 137 41" fill="none" xmlns="http://www.w3.org/2000/svg">
<path d="M0.0799999 19.8C0.0799999 13.72 4.04 9.48 9.68 9.48C12.4 9.48 14.56 10.52 15.64 12.16L15.96 10.16H21.76V28.88C21.76 36.04 17.64 40.36 10.8 40.36C4.68 40.36 0.56 36.88 0 31.2H6.24C6.36 33.44 8.04 34.76 10.76 34.76C13.72 34.76 15.6 33 15.6 30.16V27.56C14.4 29 12.16 29.92 9.56 29.92C3.96 29.92 0.0799999 25.8 0.0799999 19.8ZM6.28 19.64C6.28 22.52 8.2 24.56 10.92 24.56C13.72 24.56 15.6 22.6 15.6 19.64C15.6 16.72 13.72 14.84 10.88 14.84C8.16 14.84 6.28 16.8 6.28 19.64Z" fill="white"/>
<path d="M40.1525 10.16V15.96H38.1925C34.6725 15.96 32.5525 17.52 32.5525 21.48V30.16H26.3925V10.2H32.1925L32.5125 13.16C33.3525 11.2 35.1125 9.88 37.7925 9.88C38.5125 9.88 39.3125 9.96 40.1525 10.16Z" fill="white"/>
<path d="M46.3075 7.04C44.3475 7.04 42.7875 5.48 42.7875 3.52C42.7875 1.56 44.3475 0.0399995 46.3075 0.0399995C48.2275 0.0399995 49.7875 1.56 49.7875 3.52C49.7875 5.48 48.2275 7.04 46.3075 7.04ZM43.2675 30.16V10.16H49.4275V30.16H43.2675Z" fill="white"/>
<path d="M62.4487 30.68C56.6887 30.68 52.9688 26.6 52.9688 20.28C52.9688 13.92 56.7688 9.52 62.8488 9.52C65.3288 9.52 67.6888 10.52 68.8488 12V0H75.0088V30.16H69.2087L68.8887 27.6C67.8087 29.44 65.3287 30.68 62.4487 30.68ZM63.9287 25.04C66.8087 25.04 68.8088 23.04 68.8088 20.04C68.8088 17.04 66.8087 15.04 63.9287 15.04C61.0087 15.04 59.1688 17.08 59.1688 20.04C59.1688 23 61.0087 25.04 63.9287 25.04Z" fill="white"/>
<path d="M83.4747 30.68C81.4347 30.68 79.7947 29.04 79.7947 27.08C79.7947 25.08 81.4347 23.44 83.4747 23.44C85.4347 23.44 87.1547 25.08 87.1547 27.08C87.1547 29.04 85.4347 30.68 83.4747 30.68Z" fill="white"/>
<path d="M91.9394 39.76V10.16H97.7394L98.0594 12.6C99.1794 10.76 101.699 9.52 104.539 9.52C110.099 9.52 113.979 13.4 113.979 19.84C113.979 26.16 110.539 30.72 104.579 30.72C101.819 30.72 99.2594 29.68 98.0994 28.16V39.76H91.9394ZM98.1394 20.16C98.1394 23.16 100.139 25.16 103.019 25.16C105.939 25.16 107.779 23.12 107.779 20.16C107.779 17.2 105.939 15.16 103.019 15.16C100.139 15.16 98.1394 17.16 98.1394 20.16Z" fill="white"/>
<path d="M126.805 30.68C120.765 30.68 116.445 26.28 116.445 20.12C116.445 13.88 120.645 9.52 126.685 9.52C132.965 9.52 136.885 13.64 136.885 20.16V21.72L122.365 21.8C122.725 24.44 124.205 25.68 126.925 25.68C129.245 25.68 130.885 24.84 131.325 23.4H136.965C136.245 27.84 132.285 30.68 126.805 30.68ZM126.725 14.52C124.285 14.52 122.925 15.6 122.445 18H130.765C130.765 15.88 129.205 14.52 126.725 14.52Z" fill="white"/>
</svg>
