<svg width="165" height="49" viewBox="0 0 165 49" fill="none" xmlns="http://www.w3.org/2000/svg">
<path d="M0.0957187 23.76C0.0957187 16.464 4.84772 11.376 11.6157 11.376C14.8797 11.376 17.4717 12.624 18.7677 14.592L19.1517 12.192H26.1117V34.656C26.1117 43.248 21.1677 48.432 12.9597 48.432C5.61572 48.432 0.671719 44.256 -0.000281185 37.44H7.48772C7.63172 40.128 9.64772 41.712 12.9117 41.712C16.4637 41.712 18.7197 39.6 18.7197 36.192V33.072C17.2797 34.8 14.5917 35.904 11.4717 35.904C4.75172 35.904 0.0957187 30.96 0.0957187 23.76ZM7.53572 23.568C7.53572 27.024 9.83972 29.472 13.1037 29.472C16.4637 29.472 18.7197 27.12 18.7197 23.568C18.7197 20.064 16.4637 17.808 13.0557 17.808C9.79172 17.808 7.53572 20.16 7.53572 23.568ZM48.1827 12.192V19.152H45.8307C41.6067 19.152 39.0627 21.024 39.0627 25.776V36.192H31.6707V12.24H38.6307L39.0147 15.792C40.0227 13.44 42.1347 11.856 45.3507 11.856C46.2147 11.856 47.1747 11.952 48.1827 12.192ZM55.5687 8.44802C53.2167 8.44802 51.3447 6.57601 51.3447 4.22402C51.3447 1.87201 53.2167 0.0480156 55.5687 0.0480156C57.8727 0.0480156 59.7447 1.87201 59.7447 4.22402C59.7447 6.57601 57.8727 8.44802 55.5687 8.44802ZM51.9207 36.192V12.192H59.3127V36.192H51.9207ZM74.9382 36.816C68.0262 36.816 63.5622 31.92 63.5622 24.336C63.5622 16.704 68.1222 11.424 75.4182 11.424C78.3942 11.424 81.2262 12.624 82.6182 14.4V1.62125e-05H90.0102V36.192H83.0502L82.6662 33.12C81.3702 35.328 78.3942 36.816 74.9382 36.816ZM76.7142 30.048C80.1702 30.048 82.5702 27.648 82.5702 24.048C82.5702 20.448 80.1702 18.048 76.7142 18.048C73.2102 18.048 71.0022 20.496 71.0022 24.048C71.0022 27.6 73.2102 30.048 76.7142 30.048ZM100.169 36.816C97.7213 36.816 95.7533 34.848 95.7533 32.496C95.7533 30.096 97.7213 28.128 100.169 28.128C102.521 28.128 104.585 30.096 104.585 32.496C104.585 34.848 102.521 36.816 100.169 36.816ZM110.327 47.712V12.192H117.287L117.671 15.12C119.015 12.912 122.039 11.424 125.447 11.424C132.119 11.424 136.775 16.08 136.775 23.808C136.775 31.392 132.647 36.864 125.495 36.864C122.183 36.864 119.111 35.616 117.719 33.792V47.712H110.327ZM117.767 24.192C117.767 27.792 120.167 30.192 123.623 30.192C127.127 30.192 129.335 27.744 129.335 24.192C129.335 20.64 127.127 18.192 123.623 18.192C120.167 18.192 117.767 20.592 117.767 24.192ZM152.166 36.816C144.918 36.816 139.734 31.536 139.734 24.144C139.734 16.656 144.774 11.424 152.022 11.424C159.558 11.424 164.262 16.368 164.262 24.192V26.064L146.838 26.16C147.27 29.328 149.046 30.816 152.31 30.816C155.094 30.816 157.062 29.808 157.59 28.08H164.358C163.494 33.408 158.742 36.816 152.166 36.816ZM152.07 17.424C149.142 17.424 147.51 18.72 146.934 21.6H156.918C156.918 19.056 155.046 17.424 152.07 17.424Z" fill="white"/>
</svg>
