<svg width="35" height="35" viewBox="0 0 35 35" fill="none" xmlns="http://www.w3.org/2000/svg">
<rect x="1.34615" y="1.34615" width="32.3077" height="32.3077" rx="16.1538" fill="#FACC15"/>
<rect x="1.34615" y="1.34615" width="32.3077" height="32.3077" rx="16.1538" stroke="#A48300" stroke-width="2.69231"/>
<mask id="mask0_547_14115" style="mask-type:alpha" maskUnits="userSpaceOnUse" x="8" y="8" width="19" height="19">
<rect x="8.07617" y="8.07617" width="18.8462" height="18.8462" fill="#D9D9D9"/>
</mask>
<g mask="url(#mask0_547_14115)">
<path d="M14.3598 23.7831H20.6418V21.4273C20.6418 20.5635 20.3343 19.8241 19.7192 19.2089C19.104 18.5938 18.3646 18.2863 17.5008 18.2863C16.637 18.2863 15.8976 18.5938 15.2825 19.2089C14.6673 19.8241 14.3598 20.5635 14.3598 21.4273V23.7831ZM11.2188 25.3536V23.7831H12.7893V21.4273C12.7893 20.6289 12.9758 19.8797 13.3488 19.1795C13.7218 18.4793 14.242 17.9198 14.9095 17.501C14.242 17.0822 13.7218 16.5227 13.3488 15.8225C12.9758 15.1223 12.7893 14.3731 12.7893 13.5747V11.219H11.2188V9.64844H23.7829V11.219H22.2123V13.5747C22.2123 14.3731 22.0258 15.1223 21.6528 15.8225C21.2798 16.5227 20.7596 17.0822 20.0921 17.501C20.7596 17.9198 21.2798 18.4793 21.6528 19.1795C22.0258 19.8797 22.2123 20.6289 22.2123 21.4273V23.7831H23.7829V25.3536H11.2188Z" fill="white"/>
</g>
</svg>
