<svg width="18" height="18" viewBox="0 0 18 18" fill="none" xmlns="http://www.w3.org/2000/svg">
<path d="M11.1425 12.8115C12.5399 12.646 13.9129 12.3163 15.233 11.829C14.1151 10.5906 13.4973 8.98087 13.4998 7.3125V6.75C13.4998 5.55653 13.0257 4.41193 12.1818 3.56802C11.3378 2.72411 10.1932 2.25 8.99977 2.25C7.8063 2.25 6.66171 2.72411 5.81779 3.56802C4.97388 4.41193 4.49977 5.55653 4.49977 6.75V7.3125C4.50204 8.98097 3.88401 10.5907 2.76577 11.829C4.06552 12.309 5.43577 12.6428 6.85702 12.8115M11.1425 12.8115C9.71901 12.9804 8.28053 12.9804 6.85702 12.8115M11.1425 12.8115C11.2506 13.1489 11.2775 13.507 11.221 13.8568C11.1645 14.2065 11.0261 14.538 10.8173 14.8242C10.6085 15.1104 10.335 15.3432 10.0192 15.5037C9.70333 15.6642 9.35406 15.7479 8.99977 15.7479C8.64549 15.7479 8.29621 15.6642 7.98038 15.5037C7.66454 15.3432 7.39108 15.1104 7.18224 14.8242C6.9734 14.538 6.8351 14.2065 6.77858 13.8568C6.72207 13.507 6.74895 13.1489 6.85702 12.8115M2.34277 5.625C2.55425 4.36873 3.11812 3.19833 3.96877 2.25M14.0308 2.25C14.8814 3.19833 15.4453 4.36873 15.6568 5.625" stroke="white" stroke-linecap="round" stroke-linejoin="round"/>
</svg>
