<svg width="30" height="30" viewBox="0 0 30 30" fill="none" xmlns="http://www.w3.org/2000/svg">
<path d="M18.75 11.25H23.4375M18.75 15H23.4375M18.75 18.75H23.4375M5.625 24.375H24.375C25.1209 24.375 25.8363 24.0787 26.3637 23.5512C26.8912 23.0238 27.1875 22.3084 27.1875 21.5625V8.4375C27.1875 7.69158 26.8912 6.97621 26.3637 6.44876C25.8363 5.92132 25.1209 5.625 24.375 5.625H5.625C4.87908 5.625 4.16371 5.92132 3.63626 6.44876C3.10882 6.97621 2.8125 7.69158 2.8125 8.4375V21.5625C2.8125 22.3084 3.10882 23.0238 3.63626 23.5512C4.16371 24.0787 4.87908 24.375 5.625 24.375ZM13.125 11.7188C13.125 12.0265 13.0644 12.3313 12.9466 12.6157C12.8288 12.9 12.6562 13.1584 12.4385 13.376C12.2209 13.5937 11.9625 13.7663 11.6782 13.8841C11.3938 14.0019 11.089 14.0625 10.7812 14.0625C10.4735 14.0625 10.1687 14.0019 9.88434 13.8841C9.59998 13.7663 9.34161 13.5937 9.12397 13.376C8.90633 13.1584 8.73369 12.9 8.61591 12.6157C8.49812 12.3313 8.4375 12.0265 8.4375 11.7188C8.4375 11.0971 8.68443 10.501 9.12397 10.0615C9.56351 9.62193 10.1596 9.375 10.7812 9.375C11.4029 9.375 11.999 9.62193 12.4385 10.0615C12.8781 10.501 13.125 11.0971 13.125 11.7188ZM14.7425 19.6388C13.5229 20.2884 12.1618 20.6271 10.78 20.625C9.399 20.6267 8.03888 20.288 6.82 19.6388C7.11786 18.8278 7.65743 18.1278 8.36583 17.6333C9.07424 17.1389 9.91734 16.8737 10.7812 16.8737C11.6452 16.8737 12.4883 17.1389 13.1967 17.6333C13.9051 18.1278 14.4446 18.8278 14.7425 19.6388Z" stroke="white" stroke-width="1.5" stroke-linecap="round" stroke-linejoin="round"/>
</svg>
