<svg width="18" height="18" viewBox="0 0 18 18" fill="none" xmlns="http://www.w3.org/2000/svg">
<path d="M6.1875 6.75V3.9375C6.1875 3.48995 6.36529 3.06072 6.68176 2.74426C6.99823 2.42779 7.42745 2.25 7.875 2.25H12.375C12.8226 2.25 13.2518 2.42779 13.5682 2.74426C13.8847 3.06072 14.0625 3.48995 14.0625 3.9375V14.0625C14.0625 14.5101 13.8847 14.9393 13.5682 15.2557C13.2518 15.5722 12.8226 15.75 12.375 15.75H7.875C7.42745 15.75 6.99823 15.5722 6.68176 15.2557C6.36529 14.9393 6.1875 14.5101 6.1875 14.0625V11.25M3.9375 11.25L1.6875 9M1.6875 9L3.9375 6.75M1.6875 9H11.25" stroke="white" stroke-linecap="round" stroke-linejoin="round"/>
</svg>
