<svg width="39" height="39" viewBox="0 0 39 39" fill="none" xmlns="http://www.w3.org/2000/svg">
<rect x="0.5" y="0.5" width="38" height="38" rx="19" stroke="white"/>
<g clip-path="url(#clip0_351_6624)">
<path d="M20.375 18.625V16.4375C20.375 15.7413 20.6516 15.0736 21.1438 14.5813C21.6361 14.0891 22.3038 13.8125 23 13.8125C23.6962 13.8125 24.3639 14.0891 24.8562 14.5813C25.3484 15.0736 25.625 15.7413 25.625 16.4375V18.625M14.6875 25.1875H20.8125C21.1606 25.1875 21.4944 25.0492 21.7406 24.8031C21.9867 24.5569 22.125 24.2231 22.125 23.875V19.9375C22.125 19.5894 21.9867 19.2556 21.7406 19.0094C21.4944 18.7633 21.1606 18.625 20.8125 18.625H14.6875C14.3394 18.625 14.0056 18.7633 13.7594 19.0094C13.5133 19.2556 13.375 19.5894 13.375 19.9375V23.875C13.375 24.2231 13.5133 24.5569 13.7594 24.8031C14.0056 25.0492 14.3394 25.1875 14.6875 25.1875Z" stroke="white" stroke-linecap="round" stroke-linejoin="round"/>
</g>
<defs>
<clipPath id="clip0_351_6624">
<rect width="14" height="14" fill="white" transform="translate(12.5 12.5)"/>
</clipPath>
</defs>
</svg>
