<svg width="52" height="52" viewBox="0 0 52 52" fill="none" xmlns="http://www.w3.org/2000/svg">
<rect width="52" height="52" rx="26" fill="black" fill-opacity="0.2"/>
<rect x="0.5" y="0.5" width="51" height="51" rx="25.5" stroke="white" stroke-opacity="0.06"/>
<g clip-path="url(#clip0_335_14163)">
<path d="M22.361 14.7894C19.9631 15.6213 17.8951 17.2002 16.4608 19.2943C15.0265 21.3884 14.3015 23.8872 14.3924 26.4237C14.4832 28.9603 15.3851 31.4008 16.9655 33.3869C18.5459 35.373 20.7216 36.8 23.1729 37.4582C25.1603 37.971 27.2424 37.9935 29.2404 37.5238C31.0504 37.1172 32.7238 36.2476 34.0967 35.0001C35.5256 33.662 36.5627 31.9597 37.0967 30.0763C37.677 28.0282 37.7803 25.8743 37.3985 23.7801H26.2385V28.4094H32.7017C32.5725 29.1478 32.2957 29.8525 31.8878 30.4814C31.48 31.1102 30.9494 31.6504 30.3279 32.0694C29.5387 32.5915 28.649 32.9428 27.716 33.1007C26.7803 33.2747 25.8205 33.2747 24.8848 33.1007C23.9364 32.9046 23.0392 32.5132 22.2504 31.9513C20.9832 31.0543 20.0317 29.7799 19.5317 28.3101C19.0232 26.8127 19.0232 25.1893 19.5317 23.6919C19.8876 22.6423 20.476 21.6867 21.2529 20.8963C22.142 19.9752 23.2677 19.3168 24.5063 18.9933C25.745 18.6698 27.0488 18.6938 28.2748 19.0626C29.2325 19.3565 30.1083 19.8702 30.8323 20.5626C31.561 19.8376 32.2885 19.1107 33.0148 18.3819C33.3898 17.9901 33.7985 17.6169 34.1679 17.2157C33.0627 16.1872 31.7654 15.3869 30.3504 14.8607C27.7736 13.925 24.9541 13.8999 22.361 14.7894Z" fill="white"/>
<path d="M22.3607 14.7894C24.9536 13.8992 27.7731 13.9237 30.3501 14.8587C31.7654 15.3885 33.062 16.1927 34.1657 17.225C33.7907 17.6262 33.3951 18.0012 33.0126 18.3912C32.2851 19.1175 31.5582 19.8412 30.832 20.5625C30.1079 19.8701 29.2321 19.3565 28.2745 19.0625C27.0489 18.6924 25.7451 18.6671 24.5061 18.9893C23.2671 19.3114 22.1408 19.9686 21.2507 20.8887C20.4738 21.6791 19.8854 22.6348 19.5295 23.6844L15.6426 20.675C17.0338 17.916 19.4427 15.8057 22.3607 14.7894Z" fill="#E33629"/>
<path d="M14.6114 23.6563C14.8203 22.6209 15.1672 21.6182 15.6427 20.675L19.5295 23.6919C19.0211 25.1893 19.0211 26.8127 19.5295 28.31C18.2345 29.31 16.9389 30.315 15.6427 31.325C14.4523 28.9556 14.0893 26.256 14.6114 23.6563Z" fill="#F8BD00"/>
<path d="M26.2381 23.7781H37.3981C37.7799 25.8723 37.6766 28.0262 37.0963 30.0743C36.5623 31.9577 35.5252 33.66 34.0963 34.9981C32.8419 34.0193 31.5819 33.0481 30.3275 32.0693C30.9494 31.6498 31.4802 31.1091 31.8881 30.4796C32.296 29.85 32.5726 29.1446 32.7013 28.4056H26.2381C26.2363 26.8643 26.2381 25.3212 26.2381 23.7781Z" fill="#587DBD"/>
<path d="M15.6406 31.3251C16.9369 30.3251 18.2325 29.3201 19.5275 28.3101C20.0285 29.7804 20.9814 31.0549 22.25 31.9513C23.0413 32.5106 23.9404 32.8988 24.89 33.0913C25.8257 33.2653 26.7855 33.2653 27.7213 33.0913C28.6542 32.9334 29.5439 32.5821 30.3331 32.0601C31.5875 33.0388 32.8475 34.0101 34.1019 34.9888C32.7292 36.237 31.0558 37.1073 29.2456 37.5144C27.2476 37.9841 25.1655 37.9616 23.1781 37.4488C21.6063 37.0291 20.1381 36.2893 18.8656 35.2757C17.5187 34.2063 16.4187 32.8588 15.6406 31.3251Z" fill="#319F43"/>
</g>
<defs>
<clipPath id="clip0_335_14163">
<rect width="24" height="24" fill="white" transform="translate(14 14)"/>
</clipPath>
</defs>
</svg>
