<svg width="21" height="21" viewBox="0 0 21 21" fill="none" xmlns="http://www.w3.org/2000/svg">
<path d="M13.125 9.1875C13.125 9.88369 12.8484 10.5514 12.3562 11.0437C11.8639 11.5359 11.1962 11.8125 10.5 11.8125C9.80381 11.8125 9.13613 11.5359 8.64384 11.0437C8.15156 10.5514 7.875 9.88369 7.875 9.1875C7.875 8.49131 8.15156 7.82363 8.64384 7.33134C9.13613 6.83906 9.80381 6.5625 10.5 6.5625C11.1962 6.5625 11.8639 6.83906 12.3562 7.33134C12.8484 7.82363 13.125 8.49131 13.125 9.1875Z" stroke="white" stroke-linecap="round" stroke-linejoin="round"/>
<path d="M17.0625 9.1875C17.0625 15.4368 10.5 19.0312 10.5 19.0312C10.5 19.0312 3.9375 15.4368 3.9375 9.1875C3.9375 7.44702 4.6289 5.77782 5.85961 4.54711C7.09032 3.3164 8.75952 2.625 10.5 2.625C12.2405 2.625 13.9097 3.3164 15.1404 4.54711C16.3711 5.77782 17.0625 7.44702 17.0625 9.1875Z" stroke="white" stroke-linecap="round" stroke-linejoin="round"/>
</svg>
