<svg width="33" height="35" viewBox="0 0 33 35" fill="none" xmlns="http://www.w3.org/2000/svg">
<ellipse cx="16" cy="32.5" rx="11" ry="2.5" fill="#E0E2FF"/>
<path fill-rule="evenodd" clip-rule="evenodd" d="M25.0351 6.59033C22.7715 4.32681 19.7016 3.05518 16.5004 3.05518C13.2993 3.05518 10.2293 4.32681 7.96582 6.59033C5.7023 8.85386 4.43066 11.9239 4.43066 15.125C4.43066 18.3261 5.7023 21.3961 7.96582 23.6596L15.5283 31.2221C15.7862 31.4799 16.1358 31.6247 16.5004 31.6247C16.865 31.6247 17.2147 31.4799 17.4726 31.2221L25.0351 23.6596C27.2979 21.3957 28.5691 18.3258 28.5691 15.125C28.5691 11.9241 27.2979 8.85421 25.0351 6.59033ZM14.4379 15.125C14.4379 14.5779 14.6552 14.0533 15.042 13.6666C15.4288 13.2798 15.9534 13.0625 16.5004 13.0625H16.5142C17.0612 13.0625 17.5858 13.2798 17.9726 13.6666C18.3594 14.0533 18.5767 14.5779 18.5767 15.125V15.1387C18.5767 15.6857 18.3594 16.2103 17.9726 16.5971C17.5858 16.9839 17.0612 17.2012 16.5142 17.2012H16.5004C15.9534 17.2012 15.4288 16.9839 15.042 16.5971C14.6552 16.2103 14.4379 15.6857 14.4379 15.1387V15.125Z" fill="#5260FE"/>
</svg>
