<svg width="30" height="30" viewBox="0 0 30 30" fill="none" xmlns="http://www.w3.org/2000/svg">
<path fill-rule="evenodd" clip-rule="evenodd" d="M22.7586 5.99112C20.7009 3.93337 17.91 2.77734 14.9999 2.77734C12.0898 2.77734 9.29887 3.93337 7.24112 5.99112C5.18337 8.04887 4.02734 10.8398 4.02734 13.7499C4.02734 16.66 5.18337 19.4509 7.24112 21.5086L14.1161 28.3836C14.3505 28.618 14.6684 28.7496 14.9999 28.7496C15.3313 28.7496 15.6492 28.618 15.8836 28.3836L22.7586 21.5086C24.8158 19.4506 25.9714 16.6598 25.9714 13.7499C25.9714 10.84 24.8158 8.04919 22.7586 5.99112ZM13.1249 13.7499C13.1249 13.2526 13.3224 12.7757 13.674 12.424C14.0257 12.0724 14.5026 11.8749 14.9999 11.8749H15.0124C15.5097 11.8749 15.9866 12.0724 16.3382 12.424C16.6898 12.7757 16.8874 13.2526 16.8874 13.7499V13.7624C16.8874 14.2597 16.6898 14.7366 16.3382 15.0882C15.9866 15.4398 15.5097 15.6374 15.0124 15.6374H14.9999C14.5026 15.6374 14.0257 15.4398 13.674 15.0882C13.3224 14.7366 13.1249 14.2597 13.1249 13.7624V13.7499Z" fill="#5260FE"/>
</svg>
