<svg width="26" height="26" viewBox="0 0 26 26" fill="none" xmlns="http://www.w3.org/2000/svg">
<rect x="1" y="1" width="24" height="24" rx="12" fill="#FACC15"/>
<rect x="1" y="1" width="24" height="24" rx="12" stroke="#A48300" stroke-width="2"/>
<mask id="mask0_526_6569" style="mask-type:alpha" maskUnits="userSpaceOnUse" x="6" y="6" width="14" height="14">
<rect x="6" y="6" width="14" height="14" fill="#D9D9D9"/>
</mask>
<g mask="url(#mask0_526_6569)">
<path d="M10.6673 17.668H15.334V15.918C15.334 15.2763 15.1055 14.727 14.6486 14.2701C14.1916 13.8131 13.6423 13.5846 13.0007 13.5846C12.359 13.5846 11.8097 13.8131 11.3527 14.2701C10.8958 14.727 10.6673 15.2763 10.6673 15.918V17.668ZM8.33398 18.8346V17.668H9.50065V15.918C9.50065 15.3249 9.63919 14.7683 9.91628 14.2482C10.1934 13.728 10.5798 13.3124 11.0757 13.0013C10.5798 12.6902 10.1934 12.2746 9.91628 11.7544C9.63919 11.2343 9.50065 10.6777 9.50065 10.0846V8.33464H8.33398V7.16797H17.6673V8.33464H16.5007V10.0846C16.5007 10.6777 16.3621 11.2343 16.085 11.7544C15.8079 12.2746 15.4215 12.6902 14.9257 13.0013C15.4215 13.3124 15.8079 13.728 16.085 14.2482C16.3621 14.7683 16.5007 15.3249 16.5007 15.918V17.668H17.6673V18.8346H8.33398Z" fill="white"/>
</g>
</svg>
