<svg width="151" height="92" viewBox="0 0 151 92" fill="none" xmlns="http://www.w3.org/2000/svg">
<path d="M19.6251 31.3103C15.7484 30.2715 14.9134 27.155 17.64 24.4284C20.4223 21.6461 25.8203 20.1997 29.6969 21.2384C33.4216 22.2365 34.4087 25.3937 31.6264 28.176C28.8998 30.9026 23.3498 32.3083 19.6251 31.3103Z" fill="white"/>
<path d="M23.0793 48.2519L64.2569 7.0743L75.2788 10.0276L72.4926 13.5849C77.1806 11.5955 83.6945 11.1537 89.0914 12.5998C99.6572 15.4309 101.633 22.8042 92.674 31.7631C83.882 40.5551 71.0013 45.147 59.6753 42.1122C54.4304 40.7069 51.0123 37.9566 50.9225 35.2514L34.7853 51.3886L23.0793 48.2519ZM62.1276 24.1426C57.9542 28.3161 58.9726 32.1167 64.4455 33.5832C69.9945 35.07 76.329 33.169 80.4468 29.0513C84.5645 24.9335 83.9058 21.1587 78.3569 19.6718C72.8839 18.2053 66.301 19.9692 62.1276 24.1426Z" fill="white"/>
<path d="M101.968 53.3739C90.4895 50.2983 88.4011 41.9776 96.9705 33.4082C105.651 24.7275 119.698 20.8008 131.176 23.8763C143.11 27.074 144.828 34.8015 135.758 43.8717L133.587 46.0419L105.883 38.7598C102.895 42.6157 103.982 45.0943 109.151 46.4793C113.56 47.6606 117.845 47.3271 120.684 45.5479L131.402 48.4198C123.857 54.2298 112.381 56.1642 101.968 53.3739ZM124.296 30.8524C119.659 29.6099 115.573 30.4199 111.322 33.5142L127.132 37.7506C130.082 34.8014 129.009 32.1151 124.296 30.8524Z" fill="white"/>
<path d="M49.6968 91.3717L44.9668 75.4657H47.2108L50.1148 85.1897C50.3348 86.0257 50.5548 86.8617 50.7748 88.0717C51.0388 86.7957 51.2808 86.0257 51.5228 85.1897L54.5368 75.4657H56.8688L59.8608 85.1897C60.1248 86.0477 60.3448 86.8837 60.5868 88.0717C60.8508 86.7297 61.0708 85.9157 61.2908 85.2117L64.2168 75.4657H66.4168L61.6208 91.3717H59.5528L55.7028 78.7877L51.8088 91.3717H49.6968Z" fill="white"/>
<path d="M69.8608 91.6357C67.5508 91.6357 66.1868 90.3377 66.1868 88.3797C66.1868 86.3997 67.6608 85.1677 70.1908 84.9697L73.5788 84.7057V84.3977C73.5788 82.5937 72.5008 81.9557 71.0488 81.9557C69.3108 81.9557 68.3208 82.7257 68.3208 84.0237H66.5168C66.5168 81.7797 68.3648 80.3057 71.1368 80.3057C73.7988 80.3057 75.6028 81.7137 75.6028 84.6177V91.3717H73.8428L73.6228 89.6337C73.0728 90.8657 71.5988 91.6357 69.8608 91.6357ZM70.4548 90.0297C72.4128 90.0297 73.6008 88.7537 73.6008 86.7297V86.1577L70.8508 86.3777C69.0248 86.5537 68.2768 87.2577 68.2768 88.3137C68.2768 89.4577 69.1128 90.0297 70.4548 90.0297Z" fill="white"/>
<path d="M80.5788 91.3717H78.5108V75.1797H80.5788V91.3717Z" fill="white"/>
<path d="M85.735 91.3717H83.667V75.1797H85.735V91.3717Z" fill="white"/>
<path d="M93.4213 91.6357C90.2533 91.6357 88.0753 89.3477 88.0753 86.0037C88.0753 82.6377 90.2093 80.3057 93.3333 80.3057C96.3913 80.3057 98.3933 82.4177 98.3933 85.6077V86.3777L90.0773 86.3997C90.2313 88.6657 91.4193 89.9197 93.4653 89.9197C95.0713 89.9197 96.1273 89.2597 96.4793 88.0277H98.4153C97.8873 90.3377 96.0833 91.6357 93.4213 91.6357ZM93.3333 82.0437C91.5293 82.0437 90.3853 83.1217 90.1213 85.0137H96.3253C96.3253 83.2317 95.1593 82.0437 93.3333 82.0437Z" fill="white"/>
<path d="M103.632 91.3717H101.564V82.3517H99.4517V80.6137H101.564V77.2477H103.632V80.6137H105.744V82.3517H103.632V91.3717Z" fill="white"/>
</svg>
