<svg width="20" height="20" viewBox="0 0 20 20" fill="none" xmlns="http://www.w3.org/2000/svg">
<path d="M9.99906 18.3332C14.6024 18.3332 18.3341 14.6016 18.3341 9.99906C18.3341 5.39573 14.6024 1.66406 9.99906 1.66406C5.39573 1.66406 1.66406 5.39573 1.66406 9.99906C1.66406 14.6016 5.39573 18.3332 9.99906 18.3332ZM9.99906 17.0832C9.05961 17.0976 8.12668 16.925 7.25456 16.5755C6.38244 16.226 5.58856 15.7064 4.91911 15.0472C4.24967 14.3879 3.71804 13.6021 3.35516 12.7355C2.99228 11.8688 2.8054 10.9386 2.8054 9.99906C2.8054 9.0595 2.99228 8.12933 3.35516 7.26267C3.71804 6.39602 4.24967 5.61019 4.91911 4.95094C5.58856 4.29168 6.38244 3.77217 7.25456 3.42262C8.12668 3.07308 9.05961 2.90049 9.99906 2.9149C11.8647 2.93513 13.6471 3.69045 14.9592 5.01687C16.2713 6.34329 17.0072 8.13373 17.0072 9.99948C17.0072 11.8652 16.2713 13.6557 14.9592 14.9821C13.6471 16.3085 11.8647 17.063 9.99906 17.0832Z" fill="#5260FE" fill-opacity="0.6"/>
</svg>
