<svg width="20" height="20" viewBox="0 0 20 20" fill="none" xmlns="http://www.w3.org/2000/svg">
<path d="M9.99935 18.3346C5.39685 18.3346 1.66602 14.6038 1.66602 10.0013C1.66602 5.3988 5.39685 1.66797 9.99935 1.66797C14.6018 1.66797 18.3327 5.3988 18.3327 10.0013C18.3327 14.6038 14.6018 18.3346 9.99935 18.3346ZM9.99935 13.3346C10.8834 13.3346 11.7313 12.9834 12.3564 12.3583C12.9815 11.7332 13.3327 10.8854 13.3327 10.0013C13.3327 9.11725 12.9815 8.2694 12.3564 7.64428C11.7313 7.01916 10.8834 6.66797 9.99935 6.66797C9.11529 6.66797 8.26745 7.01916 7.64233 7.64428C7.0172 8.2694 6.66602 9.11725 6.66602 10.0013C6.66602 10.8854 7.0172 11.7332 7.64233 12.3583C8.26745 12.9834 9.11529 13.3346 9.99935 13.3346Z" fill="#5260FE"/>
</svg>
