<svg width="16" height="16" viewBox="0 0 16 16" fill="none" xmlns="http://www.w3.org/2000/svg">
<path d="M10.6829 6.23294H14.0109L11.8902 4.11094C11.2075 3.42818 10.357 2.9372 9.42438 2.68734C8.49171 2.43748 7.50971 2.43755 6.57708 2.68755C5.64445 2.93755 4.79408 3.42866 4.11143 4.11152C3.42879 4.79437 2.93794 5.6449 2.68823 6.5776M1.9909 13.0969V9.76894M1.9909 9.76894H5.3189M1.9909 9.76894L4.1109 11.8909C4.79365 12.5737 5.6441 13.0647 6.57676 13.3145C7.50942 13.5644 8.49143 13.5643 9.42405 13.3143C10.3567 13.0643 11.2071 12.5732 11.8897 11.8904C12.5723 11.2075 13.0632 10.357 13.3129 9.42427M14.0109 2.90494V6.2316" stroke="#FACC15" stroke-width="1.5" stroke-linecap="round" stroke-linejoin="round"/>
</svg>
