<svg width="30" height="30" viewBox="0 0 30 30" fill="none" xmlns="http://www.w3.org/2000/svg">
<path d="M15 18.75C17.0711 18.75 18.75 17.0711 18.75 15C18.75 12.9289 17.0711 11.25 15 11.25C12.9289 11.25 11.25 12.9289 11.25 15C11.25 17.0711 12.9289 18.75 15 18.75Z" stroke="white" stroke-width="1.875" stroke-linecap="round" stroke-linejoin="round"/>
<path d="M24.528 12.9943L23.1559 9.681L25 7.5L22.5 5L20.3309 6.85369L16.9473 5.46218L16.1691 2.5H13.7262L12.9364 5.50141L9.63051 6.89495L7.5 5L5 7.5L6.81671 9.73606L5.46562 13.0579L2.5 13.75V16.25L5.50139 17.0694L6.89469 20.3746L5 22.5L7.5 25L9.73895 23.1754L12.9963 24.5154L13.75 27.5H16.25L17.0056 24.5165L20.3189 23.1444C20.8711 23.5391 22.5 25 22.5 25L25 22.5L23.1449 20.3117L24.5174 16.9975L27.4999 16.2215L27.5 13.75L24.528 12.9943Z" stroke="white" stroke-width="1.875" stroke-linecap="round" stroke-linejoin="round"/>
</svg>
