<svg width="22" height="22" viewBox="0 0 22 22" fill="none" xmlns="http://www.w3.org/2000/svg">
<path d="M16.5 20.167C18.0188 20.167 19.25 18.9358 19.25 17.417C19.25 15.8982 18.0188 14.667 16.5 14.667C14.9812 14.667 13.75 15.8982 13.75 17.417C13.75 18.9358 14.9812 20.167 16.5 20.167Z" stroke="white" stroke-width="1.2" stroke-linecap="round" stroke-linejoin="round"/>
<path d="M16.5 7.33301C18.0188 7.33301 19.25 6.10179 19.25 4.58301C19.25 3.06423 18.0188 1.83301 16.5 1.83301C14.9812 1.83301 13.75 3.06423 13.75 4.58301C13.75 6.10179 14.9812 7.33301 16.5 7.33301Z" stroke="white" stroke-width="1.2" stroke-linecap="round" stroke-linejoin="round"/>
<path d="M5.5 13.75C7.01878 13.75 8.25 12.5188 8.25 11C8.25 9.48117 7.01878 8.25 5.5 8.25C3.98122 8.25 2.75 9.48117 2.75 11C2.75 12.5188 3.98122 13.75 5.5 13.75Z" stroke="white" stroke-width="1.2" stroke-linecap="round" stroke-linejoin="round"/>
<path d="M14.2096 5.95801L7.79297 9.62467" stroke="white" stroke-width="1.2"/>
<path d="M7.79297 12.375L14.2096 16.0417" stroke="white" stroke-width="1.2"/>
</svg>
