<svg width="24" height="24" viewBox="0 0 24 24" fill="none" xmlns="http://www.w3.org/2000/svg">
<path d="M4.06668 8.5356L5.38788 21.6252C5.46108 22.1784 8.13228 23.9976 11.9999 24C15.8699 23.9976 18.5411 22.1784 18.6131 21.6252L19.9355 8.5356C17.9147 9.666 14.8943 10.2 11.9999 10.2C9.10788 10.2 6.08628 9.666 4.06668 8.5356ZM15.8015 1.812L14.7707 0.6708C14.3723 0.1032 13.9403 0 13.0991 0H10.9019C10.0619 0 9.62868 0.1032 9.23148 0.6708L8.20068 1.812C5.11668 2.3508 2.87988 3.78 2.87988 4.8348V5.0388C2.87988 6.8952 6.96348 8.4 11.9999 8.4C17.0375 8.4 21.1211 6.8952 21.1211 5.0388V4.8348C21.1211 3.78 18.8855 2.3508 15.8015 1.812ZM14.4839 5.208L13.1999 3.6H10.7999L9.51828 5.208H7.47828C7.47828 5.208 9.71268 2.5428 10.0115 2.1816C10.2395 1.9056 10.4723 1.8 10.7747 1.8H13.2263C13.5299 1.8 13.7627 1.9056 13.9907 2.1816C14.2883 2.5428 16.5239 5.208 16.5239 5.208H14.4839Z" fill="#FF1E1E"/>
</svg>
