<svg width="10" height="10" viewBox="0 0 10 10" fill="none" xmlns="http://www.w3.org/2000/svg">
<g clip-path="url(#clip0_528_6575)">
<path fill-rule="evenodd" clip-rule="evenodd" d="M3.58458 1.58292C3.7604 1.3801 3.9778 1.21748 4.22203 1.10612C4.46625 0.994753 4.73158 0.937246 5 0.937501C5.56542 0.937501 6.07208 1.1875 6.41542 1.58292C6.68321 1.5638 6.95198 1.60254 7.20347 1.6965C7.45496 1.79047 7.68328 1.93746 7.87292 2.1275C8.06288 2.31711 8.20982 2.54536 8.30379 2.79677C8.39775 3.04818 8.43653 3.31686 8.4175 3.58458C8.62025 3.76044 8.78278 3.97786 8.89407 4.22208C9.00537 4.46631 9.06281 4.73162 9.0625 5C9.06276 5.26842 9.00525 5.53375 8.89388 5.77797C8.78252 6.0222 8.61991 6.2396 8.41708 6.41542C8.43612 6.68314 8.39734 6.95182 8.30337 7.20323C8.20941 7.45464 8.06246 7.68289 7.8725 7.8725C7.68289 8.06246 7.45464 8.20941 7.20323 8.30337C6.95182 8.39733 6.68314 8.43612 6.41542 8.41708C6.2396 8.61991 6.0222 8.78252 5.77797 8.89388C5.53375 9.00525 5.26842 9.06276 5 9.0625C4.73158 9.06276 4.46625 9.00525 4.22203 8.89388C3.9778 8.78252 3.7604 8.61991 3.58458 8.41708C3.31683 8.43626 3.04808 8.39759 2.79659 8.30369C2.5451 8.2098 2.31676 8.06288 2.12708 7.87292C1.93707 7.68326 1.79009 7.45494 1.69613 7.20345C1.60216 6.95197 1.56341 6.68321 1.5825 6.41542C1.37976 6.23956 1.21722 6.02214 1.10593 5.77792C0.994636 5.5337 0.937194 5.26839 0.937501 5C0.937501 4.43458 1.1875 3.92792 1.58292 3.58458C1.56386 3.31686 1.60263 3.04817 1.69659 2.79676C1.79056 2.54535 1.93752 2.31709 2.1275 2.1275C2.31709 1.93752 2.54535 1.79056 2.79676 1.69659C3.04817 1.60263 3.31686 1.56386 3.58458 1.58292ZM6.50417 4.24417C6.52917 4.21086 6.54726 4.17288 6.55737 4.13248C6.56749 4.09208 6.56942 4.05006 6.56306 4.0089C6.55671 3.96774 6.54219 3.92826 6.52036 3.89279C6.49853 3.85732 6.46983 3.82657 6.43594 3.80236C6.40206 3.77814 6.36367 3.76094 6.32305 3.75176C6.28242 3.74259 6.24037 3.74163 6.19937 3.74894C6.15836 3.75626 6.11924 3.77169 6.08428 3.79434C6.04933 3.81699 6.01926 3.8464 5.99583 3.88083L4.6475 5.76833L3.97083 5.09167C3.91159 5.03647 3.83324 5.00642 3.75228 5.00784C3.67132 5.00927 3.59408 5.04207 3.53683 5.09933C3.47957 5.15658 3.44677 5.23382 3.44534 5.31478C3.44392 5.39574 3.47397 5.47409 3.52917 5.53333L4.46667 6.47083C4.49875 6.50289 4.53742 6.52758 4.58 6.54319C4.62257 6.5588 4.66804 6.56495 4.71324 6.56122C4.75843 6.5575 4.80227 6.54398 4.84172 6.52161C4.88117 6.49923 4.91527 6.46854 4.94167 6.43167L6.50417 4.24417Z" fill="white"/>
</g>
<defs>
<clipPath id="clip0_528_6575">
<rect width="10" height="10" fill="white"/>
</clipPath>
</defs>
</svg>
