<svg width="22" height="22" viewBox="0 0 22 22" fill="none" xmlns="http://www.w3.org/2000/svg">
<path d="M19.25 11C19.25 10.453 19.0327 9.92839 18.6459 9.54159C18.2591 9.1548 17.7345 8.9375 17.1875 8.9375H13.75C13.75 9.66685 13.4603 10.3663 12.9445 10.882C12.4288 11.3978 11.7293 11.6875 11 11.6875C10.2707 11.6875 9.57118 11.3978 9.05546 10.882C8.53973 10.3663 8.25 9.66685 8.25 8.9375H4.8125C4.26549 8.9375 3.74089 9.1548 3.35409 9.54159C2.9673 9.92839 2.75 10.453 2.75 11M19.25 11V16.5C19.25 17.047 19.0327 17.5716 18.6459 17.9584C18.2591 18.3452 17.7345 18.5625 17.1875 18.5625H4.8125C4.26549 18.5625 3.74089 18.3452 3.35409 17.9584C2.9673 17.5716 2.75 17.047 2.75 16.5V11M19.25 11V8.25M2.75 11V8.25M19.25 8.25C19.25 7.70299 19.0327 7.17839 18.6459 6.79159C18.2591 6.4048 17.7345 6.1875 17.1875 6.1875H4.8125C4.26549 6.1875 3.74089 6.4048 3.35409 6.79159C2.9673 7.17839 2.75 7.70299 2.75 8.25M19.25 8.25V5.5C19.25 4.95299 19.0327 4.42839 18.6459 4.04159C18.2591 3.6548 17.7345 3.4375 17.1875 3.4375H4.8125C4.26549 3.4375 3.74089 3.6548 3.35409 4.04159C2.9673 4.42839 2.75 4.95299 2.75 5.5V8.25" stroke="white" stroke-width="1.5" stroke-linecap="round" stroke-linejoin="round"/>
</svg>
