<svg width="12" height="12" viewBox="0 0 12 12" fill="none" xmlns="http://www.w3.org/2000/svg">
<path d="M6 11C3.2385 11 1 8.7615 1 6C1 3.2385 3.2385 1 6 1C8.7615 1 11 3.2385 11 6C11 8.7615 8.7615 11 6 11ZM5.5 7.5V8.5H6.5V7.5H5.5ZM6.5 6.6775C6.90183 6.55639 7.2468 6.29498 7.47208 5.94087C7.69735 5.58677 7.78795 5.16353 7.72737 4.74823C7.66678 4.33294 7.45905 3.95322 7.14201 3.67823C6.82496 3.40324 6.41969 3.25127 6 3.25C5.5954 3.24987 5.20326 3.38995 4.8903 3.64638C4.57735 3.90282 4.36292 4.25977 4.2835 4.6565L5.2645 4.853C5.29234 4.71372 5.35916 4.5852 5.45718 4.48241C5.55521 4.37962 5.68041 4.30677 5.81821 4.27235C5.95602 4.23793 6.10077 4.24335 6.23561 4.28798C6.37046 4.33261 6.48986 4.41462 6.57992 4.52446C6.66998 4.63429 6.727 4.76745 6.74434 4.90842C6.76168 5.0494 6.73864 5.1924 6.67789 5.32079C6.61713 5.44918 6.52117 5.55768 6.40116 5.63366C6.28116 5.70965 6.14204 5.74999 6 5.75C5.86739 5.75 5.74021 5.80268 5.64645 5.89645C5.55268 5.99021 5.5 6.11739 5.5 6.25V7H6.5V6.6775Z" fill="#5260FE"/>
</svg>
